<svg width="480" height="315" viewBox="0 0 480 315" fill="none" xmlns="http://www.w3.org/2000/svg">
<path d="M11.0728 249.865V247.633H28.8048C32.3181 247.633 35.5008 248.15 38.3528 249.183C41.2461 250.175 43.7054 251.622 45.7308 253.523C47.7974 255.424 49.3681 257.739 50.4428 260.467C51.5588 263.154 52.1168 266.171 52.1168 269.519C52.1168 272.867 51.5588 275.905 50.4428 278.633C49.3681 281.32 47.7974 283.655 45.7308 285.639C43.7054 287.582 41.2461 289.07 38.3528 290.103C35.5008 291.136 32.3181 291.653 28.8048 291.653H11.0728V289.421H11.6928C13.1808 289.421 14.4001 289.297 15.3508 289.049C16.3428 288.76 16.8388 288.181 16.8388 287.313V251.973C16.8388 251.188 16.3428 250.65 15.3508 250.361C14.4001 250.03 13.1808 249.865 11.6928 249.865H11.0728ZM28.7428 250.237H21.4888V289.049H28.7428C31.6361 289.049 34.1988 288.615 36.4308 287.747C38.7041 286.838 40.6261 285.556 42.1968 283.903C43.8088 282.208 45.0281 280.162 45.8548 277.765C46.6814 275.326 47.0948 272.578 47.0948 269.519C47.0948 266.46 46.6814 263.732 45.8548 261.335C45.0281 258.938 43.8088 256.912 42.1968 255.259C40.6261 253.606 38.7041 252.366 36.4308 251.539C34.1988 250.671 31.6361 250.237 28.7428 250.237ZM120.81 279.067V291.653H88.6938V289.421H89.3138C90.7605 289.421 91.9592 289.297 92.9098 289.049C93.9018 288.76 94.3978 288.181 94.3978 287.313V251.973C94.3978 251.105 93.9018 250.547 92.9098 250.299C91.9592 250.01 90.7605 249.865 89.3138 249.865H88.6938V247.633H119.136V258.669H116.718L115.974 253.027C115.891 252.283 115.581 251.704 115.044 251.291C114.548 250.878 113.742 250.609 112.626 250.485C111.551 250.32 110.146 250.237 108.41 250.237H99.0478V289.049H109.836C111.159 289.049 112.295 289.008 113.246 288.925C114.238 288.842 115.044 288.698 115.664 288.491C116.284 288.284 116.739 287.995 117.028 287.623C117.359 287.251 117.545 286.796 117.586 286.259L118.33 279.067H120.81ZM97.6838 267.969C99.7505 267.886 101.673 267.824 103.45 267.783C105.269 267.742 107.005 267.68 108.658 267.597C110.311 267.514 111.965 267.411 113.618 267.287V270.945C111.965 270.821 110.311 270.718 108.658 270.635C107.005 270.552 105.269 270.49 103.45 270.449C101.673 270.366 99.7505 270.304 97.6838 270.263V267.969ZM176.304 289.607C178.288 289.607 180.004 289.297 181.45 288.677C182.938 288.057 184.096 287.106 184.922 285.825C185.749 284.544 186.162 282.911 186.162 280.927C186.162 279.232 185.832 277.827 185.17 276.711C184.509 275.595 183.6 274.686 182.442 273.983C181.285 273.28 179.983 272.681 178.536 272.185C177.09 271.689 175.581 271.214 174.01 270.759C172.357 270.263 170.724 269.726 169.112 269.147C167.5 268.527 166.054 267.762 164.772 266.853C163.491 265.902 162.458 264.724 161.672 263.319C160.928 261.872 160.556 260.116 160.556 258.049C160.556 255.776 161.114 253.833 162.23 252.221C163.346 250.568 164.855 249.286 166.756 248.377C168.699 247.468 170.848 247.013 173.204 247.013C175.354 247.013 177.255 247.344 178.908 248.005C180.603 248.666 182.07 249.679 183.31 251.043C184.55 252.407 185.542 254.143 186.286 256.251L184.426 255.755L185.17 247.633H187.774V258.855H184.922C184.385 256.954 183.579 255.321 182.504 253.957C181.43 252.593 180.128 251.539 178.598 250.795C177.11 250.051 175.436 249.679 173.576 249.679C171.675 249.679 170.063 249.989 168.74 250.609C167.418 251.229 166.384 252.118 165.64 253.275C164.938 254.432 164.586 255.817 164.586 257.429C164.586 258.958 164.917 260.24 165.578 261.273C166.24 262.306 167.108 263.154 168.182 263.815C169.298 264.476 170.58 265.055 172.026 265.551C173.473 266.006 174.982 266.46 176.552 266.915C178.247 267.37 179.921 267.907 181.574 268.527C183.228 269.147 184.716 269.932 186.038 270.883C187.402 271.792 188.477 272.97 189.262 274.417C190.048 275.864 190.44 277.682 190.44 279.873C190.44 282.518 189.8 284.771 188.518 286.631C187.237 288.491 185.542 289.896 183.434 290.847C181.326 291.798 179.012 292.273 176.49 292.273C173.928 292.273 171.572 291.86 169.422 291.033C167.314 290.206 165.496 288.987 163.966 287.375C162.437 285.722 161.3 283.634 160.556 281.113L162.478 282.105L161.734 291.653H159.006V278.261H161.92C162.582 280.617 163.574 282.663 164.896 284.399C166.26 286.094 167.893 287.396 169.794 288.305C171.737 289.173 173.907 289.607 176.304 289.607ZM232.869 287.313V251.973C232.869 251.105 232.373 250.547 231.381 250.299C230.43 250.01 229.231 249.865 227.785 249.865H227.165V247.633H243.285V249.865H242.727C241.239 249.865 239.999 250.01 239.007 250.299C238.056 250.547 237.581 251.105 237.581 251.973V287.313C237.581 288.181 238.056 288.76 239.007 289.049C239.999 289.297 241.239 289.421 242.727 289.421H243.285V291.653H227.165V289.421H227.785C229.231 289.421 230.43 289.297 231.381 289.049C232.373 288.76 232.869 288.181 232.869 287.313ZM318.041 274.231V285.205C317.462 285.949 316.636 286.734 315.561 287.561C314.528 288.388 313.267 289.173 311.779 289.917C310.332 290.62 308.741 291.198 307.005 291.653C305.31 292.066 303.492 292.273 301.549 292.273C298.284 292.273 295.308 291.736 292.621 290.661C289.934 289.586 287.62 288.057 285.677 286.073C283.734 284.048 282.246 281.65 281.213 278.881C280.18 276.112 279.663 273.032 279.663 269.643C279.663 266.336 280.2 263.298 281.275 260.529C282.391 257.76 283.9 255.362 285.801 253.337C287.744 251.312 289.996 249.762 292.559 248.687C295.122 247.571 297.87 247.013 300.805 247.013C303.368 247.013 305.662 247.426 307.687 248.253C309.712 249.038 311.428 250.154 312.833 251.601C314.238 253.006 315.313 254.701 316.057 256.685L314.321 256.499L315.189 247.633H317.855V260.219H315.003C314.342 258.194 313.391 256.396 312.151 254.825C310.911 253.254 309.34 252.014 307.439 251.105C305.579 250.196 303.368 249.741 300.805 249.741C298.532 249.741 296.403 250.216 294.419 251.167C292.476 252.118 290.782 253.461 289.335 255.197C287.888 256.933 286.752 259.02 285.925 261.459C285.098 263.898 284.685 266.626 284.685 269.643C284.685 272.702 285.057 275.471 285.801 277.951C286.586 280.39 287.702 282.477 289.149 284.213C290.637 285.949 292.414 287.272 294.481 288.181C296.589 289.09 298.966 289.545 301.611 289.545C303.843 289.545 305.765 289.276 307.377 288.739C308.989 288.16 310.312 287.52 311.345 286.817C312.378 286.073 313.122 285.453 313.577 284.957V274.231C313.577 273.363 313.06 272.784 312.027 272.495C311.035 272.206 309.795 272.061 308.307 272.061H307.687V269.953H322.691V272.061H322.381C321.224 272.061 320.211 272.206 319.343 272.495C318.475 272.784 318.041 273.363 318.041 274.231ZM357.764 291.653V289.421H358.446C359.397 289.421 360.244 289.338 360.988 289.173C361.773 288.966 362.373 288.656 362.786 288.243C363.241 287.83 363.468 287.292 363.468 286.631V251.973C363.468 251.394 363.241 250.96 362.786 250.671C362.331 250.34 361.732 250.134 360.988 250.051C360.244 249.927 359.397 249.865 358.446 249.865H357.764V247.633H369.668L392.546 286.941L391.864 287.313V251.043C391.864 250.795 391.595 250.588 391.058 250.423C390.521 250.258 389.839 250.134 389.012 250.051C388.185 249.927 387.338 249.865 386.47 249.865H385.416V247.633H400.544V249.865H399.8C398.891 249.865 398.043 249.968 397.258 250.175C396.473 250.34 395.853 250.63 395.398 251.043C394.985 251.456 394.778 251.994 394.778 252.655V291.653H390.252L365.576 249.121L366.444 249.059V288.243C366.444 288.45 366.713 288.656 367.25 288.863C367.787 289.028 368.469 289.173 369.296 289.297C370.123 289.38 370.97 289.421 371.838 289.421H372.892V291.653H357.764ZM454.275 289.607C456.259 289.607 457.974 289.297 459.421 288.677C460.909 288.057 462.066 287.106 462.893 285.825C463.72 284.544 464.133 282.911 464.133 280.927C464.133 279.232 463.802 277.827 463.141 276.711C462.48 275.595 461.57 274.686 460.413 273.983C459.256 273.28 457.954 272.681 456.507 272.185C455.06 271.689 453.552 271.214 451.981 270.759C450.328 270.263 448.695 269.726 447.083 269.147C445.471 268.527 444.024 267.762 442.743 266.853C441.462 265.902 440.428 264.724 439.643 263.319C438.899 261.872 438.527 260.116 438.527 258.049C438.527 255.776 439.085 253.833 440.201 252.221C441.317 250.568 442.826 249.286 444.727 248.377C446.67 247.468 448.819 247.013 451.175 247.013C453.324 247.013 455.226 247.344 456.879 248.005C458.574 248.666 460.041 249.679 461.281 251.043C462.521 252.407 463.513 254.143 464.257 256.251L462.397 255.755L463.141 247.633H465.745V258.855H462.893C462.356 256.954 461.55 255.321 460.475 253.957C459.4 252.593 458.098 251.539 456.569 250.795C455.081 250.051 453.407 249.679 451.547 249.679C449.646 249.679 448.034 249.989 446.711 250.609C445.388 251.229 444.355 252.118 443.611 253.275C442.908 254.432 442.557 255.817 442.557 257.429C442.557 258.958 442.888 260.24 443.549 261.273C444.21 262.306 445.078 263.154 446.153 263.815C447.269 264.476 448.55 265.055 449.997 265.551C451.444 266.006 452.952 266.46 454.523 266.915C456.218 267.37 457.892 267.907 459.545 268.527C461.198 269.147 462.686 269.932 464.009 270.883C465.373 271.792 466.448 272.97 467.233 274.417C468.018 275.864 468.411 277.682 468.411 279.873C468.411 282.518 467.77 284.771 466.489 286.631C465.208 288.491 463.513 289.896 461.405 290.847C459.297 291.798 456.982 292.273 454.461 292.273C451.898 292.273 449.542 291.86 447.393 291.033C445.285 290.206 443.466 288.987 441.937 287.375C440.408 285.722 439.271 283.634 438.527 281.113L440.449 282.105L439.705 291.653H436.977V278.261H439.891C440.552 280.617 441.544 282.663 442.867 284.399C444.231 286.094 445.864 287.396 447.765 288.305C449.708 289.173 451.878 289.607 454.275 289.607Z" fill="#F28100"/>
<path fill-rule="evenodd" clip-rule="evenodd" d="M462.244 27.9051H17.4078V223.653H62.1809V27.9051H123.901L164.241 145.429C165.227 148.477 166.079 151.435 166.796 154.304C167.603 157.172 168.32 160.265 168.947 163.582H169.62C170.247 160.265 170.964 157.172 171.771 154.304C172.578 151.435 173.474 148.477 174.46 145.429L214.666 27.9051H276.789V223.653H301.999V27.9051H422.75V63.4042H347.314V111.543H380.157V144.622H347.314V223.653H462.244V27.9051ZM232.147 223.653V105.358V95.2728C232.236 91.5077 232.416 88.1012 232.684 85.0533H231.878C231.34 88.1909 230.623 91.5973 229.726 95.2728C228.83 98.8585 227.933 102.22 227.037 105.358L187.65 223.653H232.147ZM147.824 223.653L108.303 105.358C107.317 102.22 106.331 98.6792 105.345 94.7349C104.448 90.7009 103.821 87.4737 103.462 85.0533H102.655C102.835 87.4737 102.969 90.7009 103.059 94.7349C103.238 98.7689 103.328 102.31 103.328 105.358V223.653H147.824Z" fill="#051E3C"/>
</svg>
