<svg width="480" height="315" viewBox="0 0 480 315" fill="none" xmlns="http://www.w3.org/2000/svg">
<path d="M16.7339 249.121V247.633H32.2959C35.9746 247.633 39.2606 248.15 42.1539 249.183C45.0472 250.175 47.4859 251.622 49.4699 253.523C51.4539 255.424 52.9626 257.739 53.9959 260.467C55.0292 263.154 55.5459 266.171 55.5459 269.519C55.5459 272.867 55.0292 275.905 53.9959 278.633C52.9626 281.32 51.4539 283.655 49.4699 285.639C47.4859 287.582 45.0472 289.07 42.1539 290.103C39.2606 291.136 35.9746 291.653 32.2959 291.653H16.7339V290.165H17.4779C18.9245 290.165 20.1232 290.041 21.0739 289.793C22.0245 289.504 22.4999 288.946 22.4999 288.119V251.167C22.4999 250.423 22.0245 249.906 21.0739 249.617C20.1232 249.286 18.9245 249.121 17.4779 249.121H16.7339ZM32.2959 249.183H24.9799V290.103H32.2959C35.6026 290.103 38.5372 289.648 41.0999 288.739C43.6626 287.788 45.8119 286.445 47.5479 284.709C49.3252 282.932 50.6479 280.762 51.5159 278.199C52.4252 275.636 52.8799 272.743 52.8799 269.519C52.8799 266.295 52.4252 263.422 51.5159 260.901C50.6479 258.38 49.3252 256.251 47.5479 254.515C45.8119 252.779 43.6626 251.456 41.0999 250.547C38.5372 249.638 35.6026 249.183 32.2959 249.183ZM122.374 280.307V291.653H91.9936V290.165H92.6756C94.1223 290.165 95.321 290.041 96.2716 289.793C97.2223 289.504 97.6976 288.946 97.6976 288.119V251.167C97.6976 250.34 97.2223 249.803 96.2716 249.555C95.321 249.266 94.1223 249.121 92.6756 249.121H91.9936V247.633H120.638V257.429H119.274L118.716 251.601C118.633 250.94 118.344 250.444 117.848 250.113C117.352 249.741 116.587 249.493 115.554 249.369C114.52 249.245 113.156 249.183 111.462 249.183H100.178V290.103H112.578C113.942 290.103 115.099 290.082 116.05 290.041C117.042 289.958 117.848 289.834 118.468 289.669C119.088 289.462 119.542 289.214 119.832 288.925C120.121 288.594 120.286 288.181 120.328 287.685L120.886 280.307H122.374ZM98.9376 268.341C101.17 268.3 103.236 268.279 105.138 268.279C107.08 268.238 108.92 268.196 110.656 268.155C112.392 268.114 114.086 268.072 115.74 268.031V270.139C114.086 270.098 112.392 270.056 110.656 270.015C108.92 269.974 107.08 269.932 105.138 269.891C103.236 269.85 101.17 269.808 98.9376 269.767V268.341ZM177.977 290.723C180.085 290.723 181.945 290.351 183.557 289.607C185.169 288.863 186.409 287.768 187.277 286.321C188.186 284.833 188.641 282.994 188.641 280.803C188.641 279.026 188.31 277.538 187.649 276.339C186.987 275.099 186.078 274.086 184.921 273.301C183.763 272.516 182.441 271.875 180.953 271.379C179.506 270.842 177.997 270.346 176.427 269.891C174.773 269.395 173.141 268.858 171.529 268.279C169.917 267.659 168.449 266.894 167.127 265.985C165.845 265.076 164.812 263.939 164.027 262.575C163.283 261.17 162.911 259.475 162.911 257.491C162.911 255.3 163.427 253.42 164.461 251.849C165.494 250.278 166.92 249.08 168.739 248.253C170.557 247.426 172.665 247.013 175.063 247.013C177.336 247.013 179.32 247.406 181.015 248.191C182.709 248.976 184.115 250.092 185.231 251.539C186.388 252.986 187.215 254.66 187.711 256.561L186.533 255.879L187.153 247.633H188.641V258.421H186.967C186.429 256.396 185.623 254.66 184.549 253.213C183.474 251.766 182.151 250.63 180.581 249.803C179.01 248.976 177.171 248.563 175.063 248.563C173.037 248.563 171.281 248.914 169.793 249.617C168.346 250.32 167.209 251.312 166.383 252.593C165.597 253.874 165.205 255.424 165.205 257.243C165.205 258.938 165.515 260.364 166.135 261.521C166.796 262.678 167.664 263.629 168.739 264.373C169.855 265.117 171.136 265.758 172.583 266.295C174.029 266.791 175.559 267.266 177.171 267.721C178.907 268.217 180.581 268.775 182.193 269.395C183.846 270.015 185.334 270.8 186.657 271.751C187.979 272.66 189.033 273.818 189.819 275.223C190.604 276.587 190.997 278.302 190.997 280.369C190.997 282.932 190.418 285.102 189.261 286.879C188.103 288.656 186.533 290 184.549 290.909C182.606 291.818 180.415 292.273 177.977 292.273C175.125 292.273 172.645 291.798 170.537 290.847C168.47 289.896 166.734 288.574 165.329 286.879C163.965 285.143 162.952 283.159 162.291 280.927L163.283 282.043L162.663 291.653H161.113V278.695H163.035C163.696 281.216 164.709 283.386 166.073 285.205C167.437 286.982 169.111 288.346 171.095 289.297C173.12 290.248 175.414 290.723 177.977 290.723ZM233.686 288.119V251.167C233.686 250.34 233.211 249.803 232.26 249.555C231.309 249.266 230.111 249.121 228.664 249.121H227.982V247.633H241.932V249.121H241.25C239.803 249.121 238.584 249.266 237.592 249.555C236.641 249.803 236.166 250.34 236.166 251.167V288.119C236.166 288.946 236.641 289.504 237.592 289.793C238.584 290.041 239.803 290.165 241.25 290.165H241.932V291.653H227.982V290.165H228.664C230.111 290.165 231.309 290.041 232.26 289.793C233.211 289.504 233.686 288.946 233.686 288.119ZM314.82 273.549V285.329C314.283 286.114 313.539 286.92 312.588 287.747C311.638 288.574 310.48 289.338 309.116 290.041C307.752 290.702 306.244 291.24 304.59 291.653C302.937 292.066 301.16 292.273 299.258 292.273C296.117 292.273 293.244 291.736 290.64 290.661C288.078 289.586 285.866 288.057 284.006 286.073C282.188 284.048 280.762 281.65 279.728 278.881C278.736 276.112 278.24 273.032 278.24 269.643C278.24 266.336 278.757 263.298 279.79 260.529C280.824 257.76 282.25 255.362 284.068 253.337C285.928 251.312 288.078 249.762 290.516 248.687C292.955 247.571 295.58 247.013 298.39 247.013C300.705 247.013 302.854 247.385 304.838 248.129C306.864 248.873 308.62 249.927 310.108 251.291C311.596 252.614 312.712 254.122 313.456 255.817L312.65 256.499L313.332 247.633H314.82V259.413H313.208C312.588 257.388 311.617 255.569 310.294 253.957C308.972 252.304 307.318 251.002 305.334 250.051C303.392 249.059 301.077 248.563 298.39 248.563C295.91 248.563 293.596 249.08 291.446 250.113C289.338 251.105 287.499 252.531 285.928 254.391C284.358 256.21 283.118 258.421 282.208 261.025C281.34 263.588 280.906 266.46 280.906 269.643C280.906 272.908 281.32 275.843 282.146 278.447C283.014 281.051 284.234 283.262 285.804 285.081C287.375 286.9 289.297 288.284 291.57 289.235C293.885 290.186 296.468 290.661 299.32 290.661C301.842 290.661 303.991 290.33 305.768 289.669C307.587 289.008 309.054 288.243 310.17 287.375C311.328 286.466 312.134 285.722 312.588 285.143V273.549C312.588 272.722 312.113 272.185 311.162 271.937C310.212 271.648 308.992 271.503 307.504 271.503H306.822V270.015H319.532V271.503H319.284C318.003 271.503 316.928 271.648 316.06 271.937C315.234 272.185 314.82 272.722 314.82 273.549ZM354.464 291.653V290.165H355.146C356.138 290.165 357.006 290.082 357.75 289.917C358.494 289.752 359.073 289.483 359.486 289.111C359.941 288.739 360.168 288.284 360.168 287.747V251.167C360.168 250.588 359.941 250.175 359.486 249.927C359.073 249.638 358.494 249.431 357.75 249.307C357.006 249.183 356.138 249.121 355.146 249.121H354.464V247.633H363.392L388.13 288.987L387.696 289.545V250.113C387.696 249.948 387.407 249.803 386.828 249.679C386.291 249.555 385.609 249.431 384.782 249.307C383.956 249.183 383.108 249.121 382.24 249.121H381.372V247.633H395.26V249.121H394.516C393.566 249.121 392.698 249.204 391.912 249.369C391.168 249.534 390.569 249.803 390.114 250.175C389.701 250.506 389.494 250.96 389.494 251.539V291.653H387.014L360.974 248.129L361.966 248.315V289.173C361.966 289.297 362.235 289.442 362.772 289.607C363.351 289.731 364.054 289.855 364.88 289.979C365.748 290.103 366.616 290.165 367.484 290.165H368.352V291.653H354.464ZM449.469 290.723C451.577 290.723 453.437 290.351 455.049 289.607C456.661 288.863 457.901 287.768 458.769 286.321C459.678 284.833 460.133 282.994 460.133 280.803C460.133 279.026 459.802 277.538 459.141 276.339C458.479 275.099 457.57 274.086 456.413 273.301C455.255 272.516 453.933 271.875 452.445 271.379C450.998 270.842 449.489 270.346 447.919 269.891C446.265 269.395 444.633 268.858 443.021 268.279C441.409 267.659 439.941 266.894 438.619 265.985C437.337 265.076 436.304 263.939 435.519 262.575C434.775 261.17 434.403 259.475 434.403 257.491C434.403 255.3 434.919 253.42 435.953 251.849C436.986 250.278 438.412 249.08 440.231 248.253C442.049 247.426 444.157 247.013 446.555 247.013C448.828 247.013 450.812 247.406 452.507 248.191C454.201 248.976 455.607 250.092 456.723 251.539C457.88 252.986 458.707 254.66 459.203 256.561L458.025 255.879L458.645 247.633H460.133V258.421H458.459C457.921 256.396 457.115 254.66 456.041 253.213C454.966 251.766 453.643 250.63 452.073 249.803C450.502 248.976 448.663 248.563 446.555 248.563C444.529 248.563 442.773 248.914 441.285 249.617C439.838 250.32 438.701 251.312 437.875 252.593C437.089 253.874 436.697 255.424 436.697 257.243C436.697 258.938 437.007 260.364 437.627 261.521C438.288 262.678 439.156 263.629 440.231 264.373C441.347 265.117 442.628 265.758 444.075 266.295C445.521 266.791 447.051 267.266 448.663 267.721C450.399 268.217 452.073 268.775 453.685 269.395C455.338 270.015 456.826 270.8 458.149 271.751C459.471 272.66 460.525 273.818 461.311 275.223C462.096 276.587 462.489 278.302 462.489 280.369C462.489 282.932 461.91 285.102 460.753 286.879C459.595 288.656 458.025 290 456.041 290.909C454.098 291.818 451.907 292.273 449.469 292.273C446.617 292.273 444.137 291.798 442.029 290.847C439.962 289.896 438.226 288.574 436.821 286.879C435.457 285.143 434.444 283.159 433.783 280.927L434.775 282.043L434.155 291.653H432.605V278.695H434.527C435.188 281.216 436.201 283.386 437.565 285.205C438.929 286.982 440.603 288.346 442.587 289.297C444.612 290.248 446.906 290.723 449.469 290.723Z" fill="#F28100"/>
<path fill-rule="evenodd" clip-rule="evenodd" d="M462.244 27.9051H17.4078V223.653H62.1809V27.9051H123.901L164.241 145.429C165.227 148.477 166.079 151.435 166.796 154.304C167.603 157.172 168.32 160.265 168.947 163.582H169.62C170.247 160.265 170.964 157.172 171.771 154.304C172.578 151.435 173.474 148.477 174.46 145.429L214.666 27.9051H276.789V223.653H301.999V27.9051H422.75V63.4042H347.314V111.543H380.157V144.622H347.314V223.653H462.244V27.9051ZM232.147 223.653V105.358V95.2728C232.236 91.5077 232.416 88.1012 232.684 85.0533H231.878C231.34 88.1909 230.623 91.5973 229.726 95.2728C228.83 98.8585 227.933 102.22 227.037 105.358L187.65 223.653H232.147ZM147.824 223.653L108.303 105.358C107.317 102.22 106.331 98.6792 105.345 94.7349C104.448 90.7009 103.821 87.4737 103.462 85.0533H102.655C102.835 87.4737 102.969 90.7009 103.059 94.7349C103.238 98.7689 103.328 102.31 103.328 105.358V223.653H147.824Z" fill="#051E3C"/>
</svg>
